<?xml version="1.0" encoding="UTF-8"?>
<svg width="48" height="48" viewBox="0 0 24 24" fill="none" xmlns="http://www.w3.org/2000/svg">
  <style>
    path, circle {
      stroke: #004225;
    }
    @media (prefers-color-scheme: dark) {
      path, circle {
        stroke: #f8f6f0;
      }
    }
  </style>
  <!-- Connection lines -->
  <path
    d="M6 6L18 6M6 6L6 18M18 6L18 18M6 18L18 18M6 6L12 12M18 6L12 12M6 18L12 12M18 18L12 12M9 6L12 9M15 6L12 9M6 9L9 12M6 15L9 12M18 9L15 12M18 15L15 12M9 18L12 15M15 18L12 15"
    strokeWidth="0.8"
    strokeLinecap="round"
    strokeLinejoin="round"
  />
  <!-- Nodes -->
  <circle cx="6" cy="6" r="1.2" fill="none" strokeWidth="0.8" />
  <circle cx="18" cy="6" r="1.2" fill="none" strokeWidth="0.8" />
  <circle cx="6" cy="18" r="1.2" fill="none" strokeWidth="0.8" />
  <circle cx="18" cy="18" r="1.2" fill="none" strokeWidth="0.8" />
  <circle cx="12" cy="12" r="1.4" fill="none" strokeWidth="0.8" />
  <circle cx="9" cy="6" r="1.0" fill="none" strokeWidth="0.8" />
  <circle cx="15" cy="6" r="1.0" fill="none" strokeWidth="0.8" />
  <circle cx="6" cy="9" r="1.0" fill="none" strokeWidth="0.8" />
  <circle cx="6" cy="15" r="1.0" fill="none" strokeWidth="0.8" />
  <circle cx="18" cy="9" r="1.0" fill="none" strokeWidth="0.8" />
  <circle cx="18" cy="15" r="1.0" fill="none" strokeWidth="0.8" />
  <circle cx="9" cy="18" r="1.0" fill="none" strokeWidth="0.8" />
  <circle cx="15" cy="18" r="1.0" fill="none" strokeWidth="0.8" />
  <circle cx="12" cy="9" r="1.1" fill="none" strokeWidth="0.8" />
  <circle cx="12" cy="15" r="1.1" fill="none" strokeWidth="0.8" />
  <circle cx="9" cy="12" r="1.1" fill="none" strokeWidth="0.8" />
  <circle cx="15" cy="12" r="1.1" fill="none" strokeWidth="0.8" />
</svg> 